<svg width="150" height="150" viewBox="0 0 150 150" fill="none" xmlns="http://www.w3.org/2000/svg">
<path d="M40.3412 100.613C39.9639 100.862 39.593 100.834 39.2276 100.834C35.7616 100.834 32.2955 100.836 28.8295 100.832C27.4368 100.83 26.7615 100.164 26.7595 98.7689C26.7508 92.74 26.7574 86.7111 26.7457 80.6822C26.7254 70.1415 26.6917 59.6008 26.6744 49.06C26.6719 47.524 26.7274 45.9879 26.7593 44.4519C26.7828 43.3209 27.4642 42.5717 28.588 42.4567C28.9025 42.4246 29.222 42.4351 29.5392 42.4354C37.5208 42.4427 45.5027 42.4096 53.4837 42.4795C56.769 42.5083 59.9792 43.1054 63.0186 44.4398C66.641 46.0301 69.3315 48.6001 71.2027 52.0782C72.8664 55.1705 73.5962 58.4762 73.7613 61.96C73.9759 66.4858 73.3122 70.8174 71.0306 74.7838C67.8242 80.3578 62.9389 83.5928 56.6571 84.7049C53.1117 85.3326 49.5275 85.7188 45.94 86.0461C44.9951 86.1323 44.0514 86.2327 43.1077 86.3314C41.9934 86.4479 41.2182 87.3762 41.215 88.642C41.2062 92.0348 41.2075 95.4276 41.2161 98.8205C41.218 99.5478 41.0449 100.171 40.3412 100.613ZM42.2379 55.9796C41.3976 55.1647 40.5826 54.3214 39.7088 53.5442C39.0737 52.9794 38.2994 53.1481 37.8391 53.8614C37.6049 54.2242 37.5449 54.6202 37.5472 55.0476C37.5614 57.6577 37.5659 60.2679 37.5654 62.8781C37.5644 68.3945 37.5583 73.9109 37.5544 79.4274C37.5535 80.7943 37.5525 82.1612 37.5527 83.5281C37.5529 84.4551 37.9972 85.1142 38.8153 85.5053C39.5789 85.8704 40.2384 85.5621 40.8429 85.0904C41.0729 84.9109 41.2835 84.7054 41.4953 84.5037C42.6259 83.4264 43.7403 82.3315 44.8877 81.2724C45.751 80.4757 46.4669 80.6204 46.971 81.6701C47.4566 82.6813 47.9169 83.7048 48.3763 84.7283C48.5564 85.1295 48.7861 85.3238 49.277 85.2523C51.0594 84.9929 52.8526 84.8058 54.6337 84.5383C55.7976 84.3635 55.8787 84.176 55.4154 83.1032C54.7969 81.671 54.1259 80.2604 53.5443 78.8136C53.216 77.9967 53.5369 77.5513 54.3917 77.4413C56.3218 77.1931 58.2532 76.9552 60.182 76.6978C60.7066 76.6278 61.1943 76.4312 61.4063 75.8947C61.6251 75.3408 61.2619 74.9746 60.9111 74.6208C60.6017 74.3089 60.2967 73.9926 59.9856 73.6824C54.0943 67.8057 48.2024 61.9296 42.2379 55.9796ZM61.7621 57.1924C62.0206 56.5655 61.5436 56.2913 61.1518 56.0331C60.7028 55.7371 60.343 56.0618 60.0765 56.3737C58.9842 57.6522 57.9139 58.9495 56.8453 60.2479C56.4637 60.7117 56.4307 61.2379 56.9202 61.603C57.3937 61.9561 57.9441 61.9086 58.3619 61.4286C59.5297 60.0869 60.7003 58.7467 61.7621 57.1924ZM59.8952 64.7886C59.4899 65.4023 59.7596 65.755 60.3292 66.0656C60.8063 66.3257 61.2719 66.2332 61.7459 66.1578C62.9242 65.9705 64.1041 65.7706 65.1774 65.2131C65.572 65.0081 65.8262 64.6587 65.6629 64.1869C65.4976 63.7094 65.1581 63.3556 64.6146 63.475C63.0495 63.8187 61.4766 64.1417 59.8952 64.7886ZM53.5373 58.1058C53.5402 57.0084 53.5479 55.911 53.5437 54.8137C53.5419 54.3303 53.3324 54.0864 52.8018 54.0236C52.2712 53.9608 52.0099 54.1509 51.8953 54.6187C51.5592 55.9901 51.6868 57.3787 51.7769 58.7626C51.7952 59.0444 51.9954 59.2523 52.2959 59.3071C52.5987 59.3622 52.8815 59.3355 53.0806 59.0549C53.2628 58.7982 53.4926 58.567 53.5373 58.1058Z" fill="#64AB85"/>
<path d="M93.4731 63.2695C93.6324 59.6138 93.3813 56.0283 93.526 52.4418C93.6174 50.1771 93.5456 47.906 93.5564 45.6378C93.5629 44.2876 94.1195 43.7509 95.483 43.751C97.3869 43.7511 99.2908 43.7455 101.195 43.7535C102.667 43.7596 103.171 44.2623 103.175 45.7297C103.184 49.0735 103.176 52.4173 103.19 55.761C103.205 59.2488 103.298 62.7374 103.244 66.2239C103.191 69.6374 103.231 73.0504 103.187 76.4633C103.186 76.5609 103.179 76.6596 103.19 76.756C103.243 77.1982 103.293 77.6806 103.782 77.8436C104.274 78.0076 104.533 77.5862 104.785 77.2696C107.959 73.2789 111.124 69.2809 114.297 65.2885C115.025 64.3717 115.771 63.4689 116.51 62.5605C116.937 62.036 117.48 61.7734 118.166 61.7753C120.753 61.7822 123.34 61.7759 125.927 61.7752C126.46 61.775 126.972 61.8439 127.234 62.3918C127.493 62.9343 127.253 63.3878 126.911 63.7988C124.524 66.6681 122.135 69.5358 119.743 72.4017C118.165 74.2932 116.593 76.1903 114.994 78.0646C114.485 78.662 114.505 79.1379 114.955 79.7963C119.08 85.8422 123.175 91.9098 127.263 97.9811C127.608 98.4937 128.089 98.9564 128.079 99.6578C128.069 100.419 127.739 100.822 126.99 100.825C124.036 100.838 121.083 100.833 118.13 100.824C117.454 100.822 117.002 100.431 116.646 99.8946C113.907 95.7673 111.167 91.6416 108.427 87.5148C107.271 85.7726 107.165 85.7613 105.769 87.303C105.081 88.0625 104.407 88.8343 103.723 89.5975C103.308 90.0611 103.177 90.61 103.178 91.2183C103.185 93.83 103.185 96.4417 103.178 99.0533C103.174 100.327 102.674 100.83 101.415 100.833C99.3647 100.838 97.3143 100.839 95.2641 100.83C94.1317 100.825 93.5586 100.25 93.5547 99.1117C93.5442 96.064 93.5539 93.0162 93.5387 89.9686C93.5284 87.9191 93.4637 85.8698 93.4683 83.8205C93.4789 79.067 93.5271 74.3135 93.5389 69.5599C93.544 67.4869 93.4971 65.4138 93.4731 63.2695Z" fill="#64AB85"/>
<path d="M87.5005 77.3438C87.5006 84.5402 87.5012 91.6634 87.5002 98.7865C87.5 100.33 86.991 100.835 85.4401 100.835C83.5617 100.836 81.6833 100.841 79.805 100.828C78.6551 100.82 78.0388 100.212 78.038 99.0557C78.031 89.5421 78.0313 80.0286 78.0354 70.5151C78.0358 69.4597 78.6516 68.8739 79.8293 68.8399C81.0481 68.8047 82.2684 68.8237 83.4881 68.8207C84.1711 68.819 84.8548 68.8026 85.5371 68.825C86.8845 68.8692 87.4976 69.5022 87.4996 70.8304C87.5029 72.9771 87.5004 75.1238 87.5005 77.3438Z" fill="#64AB85"/>
<path d="M87.5676 61.6216C87.5676 64.3084 85.3895 66.4865 82.7028 66.4865C80.016 66.4865 77.8379 64.3084 77.8379 61.6216C77.8379 58.9348 80.016 56.7567 82.7028 56.7567C85.3895 56.7567 87.5676 58.9348 87.5676 61.6216Z" fill="#64AB85"/>
</svg>
